<svg xmlns="http://www.w3.org/2000/svg" viewBox="0 0 192 192"><defs><linearGradient id="gold" x2=".4" y2="1"><stop stop-color="#ffe8a9"/><stop offset=".5" stop-color="#ffcb4d"/><stop offset="1" stop-color="#d9961a"/></linearGradient></defs><rect width="192" height="192" rx="44" fill="#101214"/><rect x="12" y="12" width="168" height="168" rx="36" fill="none" stroke="#ad94604f" stroke-width="2"/><path d="M132 54c-10-9-22-13-38-13-25 0-42 13-42 33 0 20 15 29 38 33l12 3c12 2 17 6 17 13 0 9-9 14-24 14-15 0-28-5-40-15l-13 21c14 12 32 19 53 19 30 0 50-14 50-37 0-20-13-29-39-35l-11-2c-12-3-17-6-17-12 0-8 7-12 18-12 10 0 19 3 29 10z" fill="url(#gold)"/></svg>
